<svg id="Layer_1" data-name="Layer 1" xmlns="http://www.w3.org/2000/svg" viewBox="0 0 1000 403"><defs><style>.cls-1{fill:#ed1c24;}</style></defs><path class="cls-1" d="M269.87,329.75q-22.69,0-40.58-11.19A80.12,80.12,0,0,1,201,288.09q-10.42-19.27-10.42-43.22T201,201.65a80.12,80.12,0,0,1,28.29-30.47Q247.17,160,269.87,160a88,88,0,0,1,39.64,8.86q17.88,8.86,27.21,24.1L319,214.71a58.16,58.16,0,0,0-12.74-13.06,69.51,69.51,0,0,0-16.48-9.33A46.06,46.06,0,0,0,273,188.9a49.06,49.06,0,0,0-26.59,7.31,52.43,52.43,0,0,0-18.5,20,59.59,59.59,0,0,0-6.84,28.61,56.48,56.48,0,0,0,7.16,28.45,55.84,55.84,0,0,0,19,20.05,47.88,47.88,0,0,0,26.12,7.46A48.77,48.77,0,0,0,289.61,298a57.67,57.67,0,0,0,15.39-8.4A78.67,78.67,0,0,0,319,276l17.73,21.77q-10,14-28.45,23A86.82,86.82,0,0,1,269.87,329.75Z"/><path class="cls-1" d="M427.27,329.75q-23.94,0-42.75-11a80.41,80.41,0,0,1-29.69-30.16Q343.94,269.44,344,244.87t10.88-43.69A80.53,80.53,0,0,1,384.52,171q18.81-11,42.75-11,23.63,0,42.44,11a80.63,80.63,0,0,1,29.7,30.15q10.88,19.13,10.88,43.69t-10.88,43.68a80.51,80.51,0,0,1-29.7,30.16Q450.9,329.75,427.27,329.75Zm0-29.23a47.69,47.69,0,0,0,26.12-7.3,50.73,50.73,0,0,0,18-19.9,58.24,58.24,0,0,0,6.22-28.45q.32-16.17-6.22-28.76a49.54,49.54,0,0,0-18-19.74,51,51,0,0,0-52.39.15,50.3,50.3,0,0,0-18.19,19.9,58.35,58.35,0,0,0-6.22,28.45,58.35,58.35,0,0,0,6.22,28.45A50.37,50.37,0,0,0,401,293.22,48.44,48.44,0,0,0,427.27,300.52Z"/><path class="cls-1" d="M858.79,239a84.82,84.82,0,0,0-5.13-31.56,73.19,73.19,0,0,0-15.55-25,74.25,74.25,0,0,0-23.78-16.63,72.15,72.15,0,0,0-29.54-6.06,86.48,86.48,0,0,0-33.43,6.37,75.83,75.83,0,0,0-26.42,18,84.32,84.32,0,0,0-17.26,27.52,95.42,95.42,0,0,0-6.22,35.14q0,24.24,11,42.9A79,79,0,0,0,743,319q19.42,10.74,44.62,10.73a89.26,89.26,0,0,0,23.47-3.26,113.7,113.7,0,0,0,22.7-8.86A74.14,74.14,0,0,0,852,304.57l-16.17-22.7q-12.13,10.58-22.54,14.61a61.69,61.69,0,0,1-22.54,4q-17.12,0-30.16-6.84a48.56,48.56,0,0,1-20.21-19.43,55.3,55.3,0,0,1-6.72-21.61H858.48Zm-102.3-43.37q11.5-6.37,28.3-6.38a42.42,42.42,0,0,1,34.51,17.42A36,36,0,0,1,826.14,225v2.18h-91.3a55.89,55.89,0,0,1,4.24-12.91A41.13,41.13,0,0,1,756.49,195.59Z"/><path class="cls-1" d="M687.21,271.7l-.48-175.14h-32v87a62.28,62.28,0,0,0-10-9.07,74.62,74.62,0,0,0-20.36-10.58A72,72,0,0,0,600.91,160q-22.08,0-39.48,11a78.16,78.16,0,0,0-27.52,30.15q-10.11,19.13-10.1,43.69t10.26,43.68a78.85,78.85,0,0,0,27.82,30.16q17.57,11,40,11A66.21,66.21,0,0,0,623.77,326a68.57,68.57,0,0,0,19-9.95C667.83,295.94,687.21,271.7,687.21,271.7ZM632,294.62a48.38,48.38,0,0,1-51.62,0,51,51,0,0,1-17.56-20.37q-6.37-12.9-6.38-29.38t6.38-29.38a51.09,51.09,0,0,1,17.56-20.37,48.38,48.38,0,0,1,51.62,0,51.17,51.17,0,0,1,17.56,20.37q6.38,12.9,6.38,29.38t-6.38,29.38A51.1,51.1,0,0,1,632,294.62Z"/><polygon class="cls-1" points="687.3 321.89 651.61 321.89 687.3 286.2 687.3 321.89"/><path class="cls-1" d="M112.91,272.05q-2.1-6.12-4.91-13.5-3-7.77-6.68-17.41L49.4,109H11.15L94.41,317.14Z"/><path class="cls-1" d="M179.36,109,131.17,241.14q-4.66,12.12-7.93,21.76t-5.75,17.73c-.25.81-.49,1.59-.73,2.39v0L98.61,326.64h32.25L218.54,109Z"/><polygon class="cls-1" points="872.21 154.82 906.28 154.82 872.21 188.88 872.21 154.82"/><path class="cls-1" d="M989,156.44V184c-2.68-.45-81.1-11.36-81.1,51.9V330l-32.12-1V249.51C870.59,140.22,986.54,156.22,989,156.44Z"/></svg>